<?xml version="1.0" encoding="utf-8"?>
<svg version="1.1" id="Layer_1"
xmlns="http://www.w3.org/2000/svg"
xmlns:xlink="http://www.w3.org/1999/xlink"
width="550px" height="400px"
xml:space="preserve">
<g id="PathID_1" transform="matrix(1, 0, 0, 1, 115, 111.05)" opacity="1">
<path style="fill:#4A7DBC;fill-opacity:1" d="M18.95 92.9L129.05 92.9L132.05 100.4L16.25 100.4L18.95 92.9M24.05 79.7L60.65 79.7L59.45 83.6L87.65 83.6L86.45 79.7L124.25 79.7L127.85 89.3L20.45 89.3L24.05 79.7M28.25 68.3L64.25 68.3L61.55 77L24.95 77L28.25 68.3M5.75 128.6L45.95 128.6L44.75 132.8L3.95 132.8L5.75 128.6M9.95 116.9L49.25 116.9L48.05 121.4L8.45 121.4L9.95 116.9M14.45 105.2L133.85 105.2L135.65 110L12.65 110L14.45 105.2M144.05 132.8L102.65 132.8L101.45 128.6L142.55 128.6L144.05 132.8M139.85 121.4L99.05 121.4L97.85 116.9L138.05 116.9L139.85 121.4M123.05 77L85.85 77L83.15 68.3L119.75 68.3L123.05 77M82.25 65.9L73.55 37.4L64.85 65.9L29.15 65.9L52.25 4.1L95.75 4.1L118.85 65.9L82.25 65.9" />
</g>
<g id="PathID_2" transform="matrix(1, 0, 0, 1, 115, 111.05)" opacity="1">
</g>
<g id="PathID_3" transform="matrix(1, 0, 0, 1, 267, 110.05)" opacity="1">
<path style="fill:#4A7DBC;fill-opacity:1" d="M107.05 78L4.8 78L4.8 69.3L101.65 69.3L107.05 78M114.55 90.3L69.9 90.3L65.1 80.7L56.1 90.3L4.8 90.3L4.8 80.7L65.1 80.7L108.55 80.7L114.55 90.3M100.2 66.9L4.8 66.9L4.8 5.1L44.4 5.1L44.4 53.7L86.1 5.1L139.15 5.1L92.1 53.7L100.2 66.9M52.5 93.9L45.3 101.4L4.8 101.4L4.8 93.9L52.5 93.9M78 106.2L124.45 106.2L127.45 111L80.4 111L78 106.2M44.4 122.4L4.8 122.4L4.8 117.9L44.4 117.9L44.4 122.4M44.4 133.8L4.8 133.8L4.8 129.6L44.4 129.6L44.4 133.8M44.4 111L4.8 111L4.8 106.2L44.4 106.2L44.4 111M134.35 122.4L86.4 122.4L84 117.9L131.65 117.9L134.35 122.4M141.25 133.8L92.1 133.8L90 129.6L138.85 129.6L141.25 133.8M75.6 101.4L71.7 93.9L116.65 93.9L121.45 101.4L75.6 101.4" />
</g>
<g id="PathID_4" transform="matrix(1, 0, 0, 1, 267, 110.05)" opacity="1">
</g>
</svg>
