<?xml version="1.0" encoding="utf-8"?>
<!-- Generator: Adobe Illustrator 22.0.0, SVG Export Plug-In . SVG Version: 6.00 Build 0)  -->
<svg version="1.1" id="Layer_1" xmlns="http://www.w3.org/2000/svg" xmlns:xlink="http://www.w3.org/1999/xlink" x="0px" y="0px"
	 viewBox="0 0 550 400" style="enable-background:new 0 0 550 400;" xml:space="preserve">
<style type="text/css">
	.st0{fill:#FFFFFF;}
	.st1{fill:#2292FF;}
	.st2{fill:#FB0C00;fill-opacity:0.7882;}
	.st3{fill:none;stroke:#FF0000;stroke-width:9.9;stroke-linecap:round;stroke-linejoin:round;stroke-miterlimit:3;}
	.st4{fill:none;stroke:#11E000;stroke-width:9.9;stroke-linecap:round;stroke-linejoin:round;stroke-miterlimit:3;}
	.st5{fill:none;stroke:#000000;stroke-width:9.9;stroke-linecap:round;stroke-linejoin:round;stroke-miterlimit:3;}
</style>
<g id="PathID_85" transform="matrix(1.48692, 0, 0, 1.48692, -21.95, -135.35)">
	<path class="st0" d="M167.8,138v153h-0.2V138H167.8"/>
</g>
<g id="PathID_86" transform="matrix(1.48692, 0, 0, 1.48692, -21.95, -135.35)">
</g>
<g id="PathID_87" transform="matrix(1.41865, 0, 0, 1.41865, 289.6, 66.25)">
	<path class="st1" d="M142,0.9V2c0.2,0.2,0.2,0.3,0,0.5c0.2,0,0.2,0.3,0,0.9l0.4,1.3v0.4v0.5v0.3c-0.1,0.1-0.1,0.3,0,0.4v0.2
		c0.2,0,0.2,0.1,0,0.3h-0.2l0.2,0.5c-0.1-0.2-0.2-0.2-0.2,0c0.1,0.1,0.1,0.3,0,0.5v0.4c0.1,0,0.1,0.1,0,0.2c-0.2,0.2-0.2,0.3,0,0.4
		V9l0.2,0.2h0.5c0.3,0.9,0.4,1.7,0.2,2.5l-0.2,0.5l0.2,0.2l-0.2,0.3c0.1,0.1,0.1,0.3,0,0.4v0.6l0.2,0.9l-0.2,0.9v0.9
		c-0.2,0-0.3,0.1-0.3,0.3l0.3,0.3l-0.5,1.1l0.3,1.2c0,0.6-0.1,1-0.4,1.4v0.9H142l0.3,0.4v0.9v0.4l0.2,0.5c-0.1,0-0.2,0.2-0.2,0.6
		H142c0.2,0,0.2,0.1,0,0.3v0.6h0.3c0.1,0,0.2,0.1,0.2,0.3c0.3,0.6,0.4,1,0.3,1.4l-0.3,0.5v0.2v0.7v0.4c-0.1,0.3,0,0.5,0.3,0.7h-0.3
		v0.3h0.3v0.6l-0.3,0.7c-0.1,0.1-0.1,0.6,0,1.4l0.3,0.2l0.3,0.9v0.3l-0.3,1.5l-0.3,1.2l0.3,1.3v0.7l0.3,0.7c0.1,0,0.1,0.1,0,0.4
		l0.2,0.5v0.5c0.3,0.4,0.3,0.7,0,0.9c0.3,0,0.4,0.2,0.3,0.6l0.2,0.5v0.3l0.3,0.5v0.5c0,0.1,0.1,0.1,0.2,0v0.2h-0.2
		c-0.2,0.2-0.2,0.3,0,0.5l0.2-0.2v0.2l-0.4,0.5l0.3,0.3l-0.3,0.2l0.4,0.5v0.3l-0.4,1.1c-0.3,0.3-0.3,0.6,0,0.9l-0.2,0.9l-0.3,0.7
		v0.5c0.2,0.3,0.2,0.5,0,0.6c-0.1,0.2-0.1,0.3,0,0.5v0.5v0.3V52c-0.1,0.1-0.1,0.3,0,0.5l-0.2,0.4v0.7l0.2,0.7v0.5
		c0.2,0.3,0.2,0.6,0,0.9l0.3,0.2l-0.3,0.5l0.5,0.7l0.3,0.6h0.2v1.4v0.4l-0.2,0.5c0.1,0,0.2,0.3,0.2,0.9c-0.1,0.5-0.1,0.8,0,1.1v0.7
		l0.3,0.5c-0.3,0-0.4,0.2-0.3,0.5c-0.1,0-0.3,0.1-0.4,0.3v0.4c0,0.4,0.1,0.7,0.3,0.9l-0.3,0.2v0.5l0.3,0.3l0.2,0.4
		c-0.3,0.7-0.4,1.3-0.2,1.6l-0.3,0.3v0.7v0.4v0.9v0.4l-0.2,0.7l0.7,0.9v0.5v0.2c-0.3,0.9-0.4,1.4-0.2,1.6v0.7c0.1,0.2,0.1,0.3,0,0.3
		l0.2,0.5c0.2,0,0.2,0.2,0,0.4c0,0.1,0.1,0.1,0.3,0v0.2H144l0.3,0.5l-0.3,0.4v0.5l0.3,0.4l0.2,0.3l-0.4,1.1
		c-0.3,0.3-0.4,0.6-0.2,0.9l-0.3,0.9l-0.2,0.7l0.2,0.5l-0.2,0.6c-0.2,0.2-0.2,0.3,0,0.5c0.1,0.2,0.1,0.3,0,0.4l0.2,0.3v0.5l-0.2,0.4
		c-0.2,0-0.2,0.1,0,0.2l-0.3,0.3v0.7c0,0.3,0.1,0.5,0.3,0.7v0.2l0.2,0.3c-0.1,0.2-0.1,0.3,0,0.4v0.5v0.3c0.2,0.1,0.2,0.3,0,0.4
		c0.2,0,0.3,0.2,0.3,0.7l0.4,0.7v1.4h0.2l-0.2,0.4v0.4l0.2,0.9l-0.2,1.1c0.1,0.3,0.1,0.5,0,0.7l0.2,0.4c-0.1,0-0.2,0.2-0.2,0.5
		c-0.2,0-0.3,0.1-0.3,0.2v0.3l-0.2,0.2l0.2,0.9c-0.1,0.3-0.1,0.5,0,0.7l0.3,0.2c-0.2,0.2-0.2,0.3,0,0.4c-0.2,0.8-0.2,1.3,0,1.6
		c-0.2,0.3-0.3,0.4-0.4,0.2l0.2,0.4h-0.2l0.2,0.3l-0.2,0.5l0.2,0.9c-0.1,0.1-0.1,0.3,0,0.4l-0.2,0.7l0.6,0.9c-0.1,0.2-0.1,0.3,0,0.4
		h-0.2v0.3l-0.3,1.6v0.4v0.4v1.2v0.5v0.6l-0.2-0.2v0.2c0.1,0.2,0.1,0.3,0,0.5v0.7l-0.3,0.2l0.3,0.7v0.2l-0.3,0.7v1.1l0.3,0.3
		l-0.3,0.2l0.3,0.7c0.3,0.1,0.4,0.5,0.2,1.1v1.2l0.3,1.3v0.2v0.9l0.2,1.2l-0.2,0.7v0.9c0.1,0,0.2,0.1,0.2,0.3v0.9
		c0.2,0.7,0.1,1.6-0.2,2.5H144v0.3h-0.2v0.2l-0.3,0.3c-0.1,0.1-0.1,0.2,0,0.2l0.3,0.4c-0.2,0-0.2,0.2,0,0.4l-0.3,0.3l0.3,0.2v0.5
		l0.2,0.3h-0.2v0.9v0.4v0.4l-0.3,1.4v0.4v0.4v0.5c-0.1,0.1-0.1,0.2,0,0.2v0.3l-0.2-0.3l0.2,0.7v0.9l0.3,0.7h-5.2v-0.4h-0.9v0.3H9.9
		v0.2H3.4v-0.4c-0.2-0.4-0.2-0.7,0-0.9l0.2-0.4v-0.6h0.3l-0.3-0.3v-0.5v-0.9v-0.2l-0.2,0.2c0.1-0.1,0-0.3-0.3-0.4l-0.5-0.9l-0.2-0.9
		l-0.3-0.6l0.3-0.5l0.2-0.7c0.3,0,0.5-0.2,0.5-0.6c0-0.3,0.1-0.5,0.3-0.7l0.2-0.7l0.3-0.7v-0.7l0.2-0.4l-0.2-0.3V124
		c0.1-0.4,0.3-0.6,0.4-0.6c-0.2-0.6-0.2-1.3,0-2.3c-0.2-0.3-0.1-0.5,0.2-0.7l-0.2-0.4v-0.2L4,118.4v-0.7c0-0.4,0.1-0.7,0.3-0.9
		L4,115.4l0.3-0.2v-0.4h0.2v-0.3l0.3-0.7v-0.4l0.2-0.3c-0.1,0-0.2-0.2-0.2-0.5l0.4-0.6l0.2-0.3v-0.2l-0.2-0.7v-0.5
		c-0.2,0-0.3-0.2-0.3-0.4v-0.4H4.7v-0.5H4.5v-0.7L4,108l0.3-0.4l-0.4-0.9l-0.3-0.5l-0.5-0.4v-0.4v-0.5H2.9v-0.4H2.7l0.3-0.5H2.7
		v-0.4c0.2-0.2,0.2-0.3,0-0.3l-0.2-0.2c0.3,0,0.4-0.2,0.2-0.5h0.3l-0.3-0.3l-0.5-0.2l0.3-0.3l0.2-0.2c0.2,0,0.2-0.1,0-0.3v-0.2
		c0-0.2-0.1-0.3-0.2-0.3v-0.4H2.2l0.3-0.2l0.5-0.7v-0.5l-0.5-0.6h0.2v-0.5l-0.2-0.4l0.2-0.5l0.3-0.7l-0.3-0.4l0.3-0.5l-0.3-1.5
		l0.3-0.3l0.2,0.3c-0.1-0.2-0.1-0.2,0-0.3l0.3-0.2v-0.3c0-0.1,0.1-0.1,0.2,0H4c-0.3-0.7-0.4-1.4-0.2-2v-0.4v-0.5L4,90v-0.7l-0.2-0.9
		L4,87.5v-0.9v-0.4L4.3,85v-1.1c-0.2-0.6-0.1-1.1,0.2-1.3l0.3-0.7v-0.7v-0.4v-0.4l-0.3-0.5v-0.4l0.3-0.7l0.2-0.2v-0.3l-0.2-0.2
		l0.2-0.3H4.7l-0.3-0.2c-0.3-0.6-0.4-1.1-0.2-1.3H4l0.3-0.4l0.2-0.3l-0.2-1.1l0.2-0.3l-0.2-0.4h0.2l-0.2-0.2H4l0.3-0.7l0.2-0.7
		l-0.2-1.3l-0.4-1.2L4,69.5c0-0.9,0.1-1.4,0.3-1.6c0.1-0.6,0.1-1.1,0-1.3l0.2-0.5v-0.7L4,64.8c-0.1-0.1-0.1-0.3,0-0.7
		c-0.1,0-0.2-0.1-0.2-0.4c0.1-0.2,0.1-0.3,0-0.5v-0.5c-0.3-0.5-0.4-0.8-0.3-0.9c-0.1,0-0.1-0.2,0-0.7l-0.2-0.5
		c-0.2-0.1-0.2-0.2,0-0.2l-0.3-0.5c-0.1,0-0.1-0.2,0-0.5c0-0.2-0.1-0.2-0.2,0v-0.3h0.2l-0.2-0.4l0.2-0.5V58l-0.2-0.5l-0.3-0.2
		c0-0.3,0.2-0.7,0.5-1.1c0.3-0.3,0.4-0.6,0.3-0.9l0.2-0.9l0.3-0.7l-0.3-0.5c0-0.3,0.1-0.5,0.3-0.7c0.1-0.1,0.1-0.3,0-0.4
		c-0.2-0.1-0.2-0.3,0-0.5l-0.3-0.2v-0.5l0.3-0.5c0.1,0,0.1-0.1,0-0.3L4,50.2v-0.7l-0.2-0.7v-0.3l-0.3-0.2c0.2-0.2,0.2-0.3,0-0.4
		v-0.5v-0.3c-0.1-0.1-0.1-0.3,0-0.5c-0.1,0-0.2-0.2-0.2-0.7l-0.5-0.7v-1.4H2.7l0.3-0.5v-0.4l-0.3-0.9l0.3-1.1
		c-0.2-0.3-0.2-0.5,0-0.7L2.7,40l0.3-0.5l0.2-0.2v-0.3l0.3-0.2L3.1,38c0.2-0.3,0.2-0.5,0-0.7l-0.2-0.2C3,37,3,36.8,2.9,36.7
		c0.1-0.8,0.1-1.3,0-1.6c0.1-0.3,0.3-0.4,0.5-0.2l-0.3-0.4h0.3l-0.3-0.3l0.3-0.5l-0.3-0.9c0.2-0.1,0.2-0.3,0-0.5l0.3-0.6l-0.7-0.9
		c0.2-0.2,0.2-0.3,0-0.4h0.3v-0.3l0.2-1.6v-0.4v-0.5v-1.1v-0.5v-0.6l0.3,0.2v-0.2c-0.2-0.2-0.2-0.3,0-0.4v-0.7l0.2-0.5l0.3-0.4
		L4,22.9v-0.6h0.3V22v-0.9l0.5-0.6L4.5,20l0.4-0.7v-1.1h0.3l-0.3-0.5c0.2-0.2,0.2-0.3,0-0.3l0.3-0.5v-0.2l-0.3-0.3l-0.2-0.3l0.2-0.2
		v-0.2v-0.4v-0.6l0.3-0.4H4.9l0.3-0.3l-0.3-0.5h0.3v-0.2H4.9v-0.3c-0.1,0.2-0.2,0.1-0.2-0.2c0.1-0.3,0.1-0.4,0-0.4l0.2-0.3v-0.4
		l0.3-0.5H4.9l0.3-0.2v-0.9h0.2L5.2,9.9h0.2L4.9,9.4l0.3-0.3h0.2c0-0.3-0.1-0.4-0.2-0.2L4.9,8.7l0.3-0.2c-0.3,0-0.5-0.2-0.7-0.7V7.6
		l0.3-0.5V6.7l0.2,0.2V6.5h0.3V6H4.9c0-0.3,0.1-0.5,0.3-0.7C5,5.2,4.9,5,4.9,4.7V3.8V3.1V2.4L4.7,2V0.9V0.6L4.5,0.4h0.3V0.2l0.2,0.2
		V0.2c-0.1,0-0.1-0.1,0-0.2v-0.2l0.5-0.2h0.4h0.5h0.4h0.4L9-0.3v-0.2h133.4l-0.2,1.5L142,0.9 M112.7,20.5L100.1,9.6h-0.2
		c0,0.3-0.3,0.7-0.9,1.1c0,0.1-0.2,0.2-0.5,0.2l-0.7,0.4l-0.2,0.3c-0.2,0.3-0.3,0.4-0.4,0.2v0.3H97v0.2c-0.1,0-0.2,0.1-0.2,0.3h-0.5
		L96.1,13c0-0.2-0.1-0.2-0.2,0l-0.3,0.4h-0.5L95,13.9h-0.4l-0.3,0.5c-0.1,0.1-0.2,0.1-0.2,0v0.2l-0.3,0.3v-0.3l-0.2,0.3l-0.3,0.4
		v0.2l-0.7,0.3v0.2h-0.3v-0.2L92,17.1c0,0.5-0.2,0.8-0.5,0.9l-0.4,0.7l-0.2,0.6l-0.4,0.5c-0.3,0.2-0.4,0.3-0.3,0.5l-0.4,0.4
		l-0.2,0.3l-0.3,0.2l-0.2,0.3l-0.5,0.4c0.1,0.1,0.1,0.2,0,0.2v0.3c-0.5,0.6-0.8,0.9-1.1,0.9v0.2h-0.2l-0.4,0.4l-0.3,0.3l-0.5,0.2
		v0.5c-0.1,0-0.3,0.1-0.6,0.3c-0.5,0.1-0.8,0.3-0.9,0.4v-0.3l-0.3,0.3l-0.7,0.9h-0.3c0.2,0.1,0.1,0.4-0.2,0.7l-0.9,0.7
		c-0.2,0.4-0.4,0.7-0.7,0.9L81.2,29l-0.4,0.2c0.2,0.2,0.2,0.3,0,0.4v0.5l-0.2,0.3v0.2L79.9,31c0,0.5-0.2,0.7-0.5,0.7h-0.2l-0.4,0.4
		c-0.3,0.6-0.6,1-0.9,1.1v0.5l-0.5,0.5l-0.3,0.4l-0.6,0.7l-0.3,0.2l-0.2,0.7l-1.3,0.2l-0.3,0.4l0.3,0.3h-0.3
		c-0.3,0.7-0.6,1.2-0.9,1.4l-0.2,0.2l-0.3,0.3l0.3,0.2h-0.5l-0.3,0.5L72.2,40c-0.1,0-0.2,0.1-0.2,0.5l-0.5,0.5h0.3l-0.5,0.4
		l-0.4,0.5c0.1,0.3,0.1,0.7-0.3,1.2l-0.2,0.5l-0.3,0.6v0.3H70l-0.4,0.9l-0.3,0.6l-0.2,0.3L68.8,47l-0.7,0.7v0.3l-0.4,0.4l-0.3,0.5
		L67.3,49L67,48.8c-0.1,0-0.3,0.1-0.5,0.2c0.2,0,0.2,0.1,0,0.3l-0.2,0.5v0.2h-0.3l-0.2,0.4l-0.3,0.5h-0.2v0.3l-0.3,0.2L65,51.5v-0.3
		h-0.3v0.4c0-0.3-0.1-0.3-0.2,0L64.1,52v0.5l-0.3-0.3v0.4l-0.2,0.5l-0.3,0.3v0.2L63,54l0.3,0.3l-0.5,0.2c-0.2,0.2-0.3,0.2-0.5,0v0.7
		c-0.2,0.1-0.3,0.1-0.3,0c0-0.2-0.1-0.2-0.2,0v0.2c-0.2-0.1-0.5,0-0.9,0.3h-0.3v-0.5l-0.2,0.2h-0.3c0-0.1,0.1-0.2,0.3-0.2
		c0.1,0,0.1-0.1,0-0.3l-0.3-0.2c0.2,0,0.2-0.2,0-0.7l-0.5-0.2l-0.2-0.3h-0.3v-0.2h-0.2c0,0.1-0.1,0.1-0.3,0v-0.3l-0.2-0.5l-0.5-0.4
		l-0.5-0.7l-0.4-0.5v-0.5l-0.3-0.4l-0.2-0.5l-0.3-0.3L56.5,49l0.7-0.9v-0.6c-0.3-0.8-0.4-1.3-0.2-1.6c-0.2-0.1-0.2-0.3,0-0.4
		l-0.3-0.2l0.3-0.3l-0.3-1.1l0.3-0.4c-0.2-0.2-0.2-0.3,0-0.5l-0.3-0.3v-0.5v-0.7l-0.5-0.9L56,40v-0.5l-0.3-0.2l-0.2-0.9l-0.3-0.7
		l0.3-0.5c-0.3-0.3-0.4-0.6-0.4-0.9v-0.9h-0.3v-0.5c0-0.1,0.1-0.2,0.3-0.2l-0.3-0.4v-0.3c0-0.1,0.1-0.2,0.3-0.2l0.2-0.5
		c0,0.1-0.1,0.1-0.2,0v-0.3v-0.5v-0.6l-0.3-0.4h0.3v-0.3h-0.3l0.3-0.5h-0.3v-0.2h0.3v-1.3L54.9,29h0.3l-0.3-0.3h0.3l-0.3-0.5
		c-0.1,0-0.1-0.2,0-0.6h-0.2l0.2-0.4L54.7,27l0.5-0.2l-0.3-0.3h-0.2v-0.2c0-0.2,0.1-0.2,0.2,0l0.3-0.3l-0.3-0.2
		c0.3,0,0.5-0.2,0.7-0.7V25l-0.4-0.9v-0.3h-0.3l-0.2-0.4h0.5l-0.3-0.6l0.3-0.9v-0.7l-0.3-0.9l0.3-0.5l0.2-0.5c0.2-0.1,0.2-0.5,0-1.1
		v-0.7l-0.2,0.3v-0.3c0.1-0.1,0.1-0.2,0-0.2v-0.3l-0.5-0.2h-0.5h-0.5h-0.5h-0.4h-6.1l-6,0.2v-0.2l-1.2,0.2c-0.3,0.3-0.6,0.4-0.9,0.3
		c-0.1,0.1-0.3,0.1-0.7,0h-0.3v0.2l0.3,0.3h-0.3L37.6,18h-0.3l0.3,1.6L37.3,20c0.2,0.1,0.2,0.4,0,0.6v0.7l-0.2,0.2l0.2,0.5l-0.2,0.5
		l0.2,0.7l0.3,0.6l-0.4,0.5l-0.3,0.5l0.3,0.3v0.2l0.2,0.5l-0.4,0.4l0.3,0.3l0.4,0.2h-0.3l0.3,0.3h-0.3c0.2,0.1,0.1,0.3-0.2,0.5
		c0.1,0.1,0.2,0.1,0.2,0v0.4v0.2h0.3l-0.3,0.4v0.3l0.5,0.5c-0.1,0-0.1,0.1,0,0.2v0.7H38l0.2,0.2l0.3,0.4c0,0.3,0.1,0.6,0.5,0.9v0.3
		l-0.3,0.2c0.2,0,0.3,0.2,0.5,0.7v0.5l0.3,0.2v0.5l0.2,0.3c0,0.3,0.1,0.5,0.3,0.5v0.6v0.7l0.2,0.5c0,0.3,0.1,0.4,0.3,0.3L40,36.7
		c0.2,0,0.2,0.2,0,0.6c-0.1,0-0.1,0.2,0,0.5l0.3,0.5l0.5,1.1l0.2,1.1c0.2,0,0.2,0.1,0,0.3v0.6h-0.2v1.2l-0.3,1.1l0.3,0.7V47
		c0.1,0.3,0.1,0.6,0,0.9v0.4V49v0.7v0.6v0.7v0.5v1.1l0.2,0.5l0.3,1.6l-0.3,0.6l0.3,0.5v0.5v0.7v0.6l0.2,0.7v0.5l-0.2,0.6
		c-0.2,0.2-0.2,0.3,0,0.5v0.3l-0.5,0.7v0.7h-0.3c0.2,0.1,0.2,0.3,0,0.4l0.3,0.9c0.1,0.3,0.1,0.6,0,0.9l-0.5,1.1
		C40.1,65,40,65,40,64.8l-0.2,0.4c-0.2,0.2-0.3,0.3-0.3,0.5l-0.2,0.4c-0.2,0-0.2,0.1,0,0.3V67l0.2,1.2h0.3l-0.3,0.2h0.3v0.9
		c-0.2,0.3-0.1,0.4,0.2,0.4l-0.2,0.5v0.3l0.2,0.4v0.5c0.2,0.1,0.2,0.3,0,0.6c-0.1,0.5-0.1,0.8,0,0.9l0.3,0.5l0.2,0.3V74l0.3,0.2v0.7
		l0.5,0.4l-0.3,0.2h0.3V76c-0.2,0-0.2,0.1,0,0.3v1.1l-0.3,0.3v0.5h-0.2l-0.3,0.4c-0.3,0.3-0.5,0.5-0.5,0.7c-0.1,0.2-0.1,0.3,0,0.4
		l-0.2,0.3c0.1,0,0.2,0.2,0.2,0.5L39.6,81l0.3,0.3h-0.3v0.2l-0.2,0.3v0.2v1.3v0.7l-0.3,0.7l0.3,1.6l0.2,0.2c-0.1,0.2-0.1,0.3,0,0.5
		l-0.2,0.3l0.2,0.4h-0.2c-0.2,0.9-0.1,1.7,0.2,2.3c-0.1,0-0.3,0.2-0.6,0.4v0.7l0.2,0.2l-0.2,0.5v0.3l0.2,0.2h-0.2v0.3l-0.3,0.7
		l-0.2,0.7c-0.2,0-0.3,0.2-0.3,0.7c0,0.5-0.1,0.7-0.2,0.7l-0.3,0.7l-0.5,0.5c0.2,0,0.3,0.2,0.3,0.7l0.5,0.9l0.5,0.9h-0.3
		c0.3,0.1,0.4,0.3,0.3,0.4l0.2-0.3V99c0,0.4,0.1,0.7,0.3,0.9v0.7h-0.3c0.2,0.2,0.2,0.3,0,0.4c-0.1,0.3-0.1,0.5,0,0.7
		c-0.1,0-0.2,0.2-0.2,0.5v0.4v1.1l-0.3,0.9l-0.2,0.7v0.9l-0.5,0.2v0.4v1.3l-0.3,0.9l-0.2,0.5v0.4v0.4l0.4,0.5v0.4
		c0.1,0.2,0.1,0.3,0,0.5l0.9,1.3v0.3v0.4l0.7,0.7l0.3,0.7l-0.3,0.5l0.3,0.2v0.5c0.1,0.3,0.1,0.6,0,0.9l-0.3,0.9l0.3,0.7h0.2
		l-0.2,0.6l0.2,0.7l0.3,0.4v-0.7v-1.3l0.2-0.2v2.3l15.5,0.2l-0.3-1.6v-0.4h-0.2l0.2-0.5v-0.4v-0.5l-0.2-0.4l0.4-1.3v-0.5v-0.4v-0.3
		c-0.2-0.1-0.2-0.3,0-0.4c-0.2-0.1-0.2-0.2,0-0.2h0.2c0-0.3-0.1-0.4-0.2-0.3v-0.4h-0.3l0.3-0.5c-0.2-0.1-0.2-0.3,0-0.4l-0.3-0.2
		c-0.1-0.2-0.1-0.3,0-0.5v-0.3l0.3-0.2h0.2l0.3-0.3c0.3-0.9,0.4-1.7,0.2-2.3c0-0.3-0.1-0.5-0.2-0.5l0.2-0.2c-0.1,0-0.1-0.1,0-0.3
		c0-0.3-0.1-0.4-0.2-0.4v-0.7c0-0.5,0.1-0.8,0.2-0.9l-0.2-1.2V104c-0.2,0-0.2-0.1,0-0.3v-0.2l-0.3-1.2V101c0.2-0.4,0.1-0.8-0.2-1.1
		l-0.3-0.7V99h-0.2l0.2-0.4v-0.9c0-0.2,0.1-0.3,0.3-0.5h-0.3l0.3-0.4l-0.3-0.7l-0.2-0.2v-0.7h0.2l0.3-0.5c0.3-0.4,0.4-0.8,0.2-1.1
		v-0.4l-0.2-0.5c0.1-0.2,0.1-0.3,0-0.4l0.2-0.4l-0.2-0.5v-0.3l0.2-0.2c0.2-0.2,0.2-0.4,0-0.7l-0.2-0.6c-0.2-0.3-0.1-0.8,0.2-1.4
		l0.3-1.4l-0.3-1.6l-0.2-1.3v-0.7v-0.4c0-0.3,0.1-0.5,0.2-0.7l0.3-0.7c0.1-0.1,0.1-0.3,0-0.5l0.2-0.4v-0.7c0.3-0.3,0.4-0.5,0.3-0.7
		c0.1,0,0.1-0.2,0-0.7l0.2-0.4v-0.5l0.3-0.3v-0.7c-0.2-0.2-0.1-0.3,0.2-0.4V76l-0.2-0.4v-0.2l0.2-0.4v-0.3h0.3
		c0-0.3-0.2-0.7-0.7-1.1c-0.1-0.3-0.1-0.7,0-1.2l-0.2-0.7l-0.3-0.7v-0.7c0.2-0.2,0.2-0.3,0-0.5l0.3,0.2l0.2,0.3l0.5,0.2l0.7,0.5
		l0.7,0.7l0.5,0.4l0.3,0.2l-0.3,0.3l0.7,0.7l0.2,0.7l0.7,0.4v0.2h0.2v0.3H61v0.2l0.5,0.5l0.5,0.7h0.2l0.3,0.4
		c0.3,0.3,0.4,0.5,0.2,0.5l0.7,0.9l0.7,0.6V79l0.4,0.5l0.7,0.7h0.2l0.9,1.1l0.3,0.5l0.4,0.2v0.3l0.5,0.2l0.2,0.3
		c0,0.3,0.2,0.5,0.7,0.6v0.3h0.2v0.2l0.3,0.7l0.4,0.5v0.6h0.2c0.2,0.2,0.2,0.2,0,0.3v0.2l0.3,0.4l0.6,0.3l0.5,0.7l0.3,0.7v0.5v0.4
		v0.5l0.2,0.7l0.5,0.2l0.7,0.7l0.7,0.7c0,0.3,0.2,0.4,0.5,0.3v0.4h0.2l0.3,0.2l0.2,0.5l0.4,0.4l0.4,0.5c0,0.2,0.2,0.3,0.5,0.3
		l0.4,0.2h0.3l0.5,0.4h0.2V95h0.4v0.2h0.3v0.3l0.5,0.4v0.2h0.2v0.7v0.7c0.2,0.3,0.2,0.5,0,0.7l0.5,0.2v0.3l0.3,0.2
		c0.3,0.3,0.4,0.5,0.2,0.7c0.2,0,0.2,0.1,0,0.2v0.3l0.3,0.2l0.7,0.9c0,0.2,0.1,0.4,0.4,0.7l0.3,0.5c0.3,0.4,0.6,0.7,0.9,0.7l0.4,0.4
		l0.2,0.4c0.3,0.8,0.8,1.3,1.3,1.6c-0.3,0-0.4,0.2-0.2,0.6l0.4,0.5l0.2,0.3v0.2c0.2,0.2,0.3,0.2,0.3,0l0.2,0.3l0.3,0.7v0.7l0.2,0.5
		c0.3,0.3,0.4,0.5,0.3,0.7c0.3,0.6,0.4,1,0.2,1.1l0.4,0.2l0.7,0.4l0.7,0.3v0.2c0.3-0.1,0.5-0.1,0.5,0h0.3l0.4,0.7l0.4,0.2h-0.3
		l0.3,0.5l0.2,0.4l0.4,0.7L90,115l0.2,0.9l0.3,0.5l0.4,0.7v0.4v0.2c0.1,0.3,0.4,0.6,0.9,0.9c0.3,0.3,0.4,0.6,0.2,0.9l0.3,0.3
		l0.2,0.2l0.3,0.4h0.4l0.2,0.3c0.2,0,0.3,0.2,0.3,0.5c0.6,0,1.1,0.2,1.3,0.4l0.2,0.2l0.9,0.3l0.5,0.5l0.3,0.2l0.4,0.5l0.4,0.4
		l0.2,0.7l0.4,0.5h0.3l0.2,0.4l0.4,0.2c0.2,0,0.3,0.1,0.4,0.3l-0.4-0.5c-0.1-0.5-0.3-0.8-0.7-0.9v-0.4l1.3,1.8l10.4-8.1l-1.2-0.9
		h0.3l-0.5-0.3l-0.3-0.2l-0.2-0.4l-0.4-0.5l-0.5-1.1l-0.3-0.5c-0.1-0.1-0.2-0.1-0.2,0l-0.3-0.2l-0.2-0.5v-0.3l-0.3-0.2v0.2l-0.2-0.2
		l-0.3-0.3l-0.2-0.4h-0.3c-0.1,0-0.2-0.2-0.2-0.5v-0.7c-0.2-0.8-0.5-1.3-0.9-1.6l-0.4-0.2v-0.3l-0.3-0.2l-0.2-0.3l-0.5-0.4l-0.3-0.7
		l-0.7-0.4c-0.3-0.3-0.4-0.5-0.4-0.7h-0.3v-0.2l-0.9-0.7l-0.4-0.9c-0.3-0.3-0.6-0.5-0.9-0.5l-0.4-0.4v-0.2h-0.2l-0.3-0.3l-0.2-0.7
		l-0.3-0.5l-0.2-0.3l-0.4-0.2L97,101h-0.2v-0.2h-0.3c0-0.2,0.1-0.2,0.3-0.3l-0.3-0.2c0-0.6-0.2-1-0.5-1.2L95.9,99l-0.3-0.3l-0.5-0.7
		c-0.3-0.2-0.4-0.3-0.2-0.4h-0.3v-0.3L94.3,97l-0.5-0.4l-0.4-0.7l-0.5-1.2c-0.4-0.6-0.8-0.9-1.1-0.9l-0.7-0.9l-0.5-0.2L90.5,92
		c-0.2,0-0.3-0.2-0.3-0.4L90,91.1l-0.3-0.4c-0.1,0-0.1-0.1,0-0.2h-0.2v-0.3L89.3,90l-0.2-0.7l-0.3-0.5l-0.2-0.4l-0.3-0.2V88
		l-0.2-0.2v-0.3L88,87.1l-0.4-0.3l-0.2-0.2v-0.7c-0.2-0.1-0.5-0.3-0.9-0.5l-0.7-0.6c0-0.2-0.2-0.3-0.4-0.3l-0.5-0.5l-0.2-0.4
		l-0.5-0.5L83.9,83l-0.2-0.3v-0.2l-0.3-0.3L83,81.9h-0.2l-0.4-0.7l-0.3-0.4l-0.2-0.3l-0.3-0.7l-0.2-0.3c0-0.1-0.1-0.2-0.3-0.2v-0.7
		l-0.4-0.6H81l-0.3-0.3l-0.5-0.7l-0.4-0.5l-0.5-0.9l-0.6-0.7l-0.3-0.4l-0.2-0.2l-0.3-0.3h-0.4L77.4,74L77,73.3l-0.4-0.5l0.2-0.2
		l-0.2-0.5c-0.6-0.3-0.9-0.6-0.9-0.9l-0.5-0.3l-0.3-0.2c-0.1-0.2-0.3-0.3-0.4-0.3l-0.2-0.9H74l-0.5-0.4c0-0.3,0.1-0.5,0.3-0.7
		c0.3-0.2,0.6-0.3,0.9-0.3h0.2l0.3-0.4c-0.2,0-0.2-0.1,0-0.2v-0.3l0.2-0.2c0.2,0.1,0.4,0.1,0.7,0l-0.3-0.4v-0.5l0.3,0.2l0.2-0.2h0.3
		v-0.4l0.2-0.5l0.4-0.4v-0.4l0.5-0.5l-0.2-0.3h0.2l0.3-0.2l-0.3-0.3c0.2-0.1,0.2-0.2,0-0.2l0.3-0.5l0.2-1.2l0.3-0.2l0.2-0.7l0.3-0.2
		v-0.5l0.2-0.3v-0.2h0.3c-0.2,0-0.2-0.1,0-0.3c0.1-0.1,0.1-0.3,0-0.4l0.2-0.2v-0.3l0.3-0.2l0.2-0.5c0.2-0.3,0.3-0.5,0.4-0.5
		c0.2-0.2,0.2-0.3,0-0.4h0.3c-0.2-0.2-0.1-0.3,0.2-0.5l0.4-0.3l0.3-0.7l0.2-1.1c0.2-0.4,0.4-0.7,0.7-0.9v-0.5h0.4v-0.5l0.5,0.3
		l0.6-0.9l0.9-0.7l0.5-0.7v-0.3l0.4-0.4l0.4-0.7l0.7-0.7v-0.2l0.2-0.3l0.3-0.4c0.3-0.3,0.5-0.4,0.7-0.2l0.7-1.2l0.5-0.2v-0.3
		c0.1,0,0.3-0.1,0.4-0.2v-0.5l0.5-0.5l0.6-0.9v-0.3l1.6-1.8l0.4-0.6l0.2-0.5l0.3-0.5l0.7-0.9v-0.3h0.3v-0.2l0.9-0.3v-0.2l0.4-0.5
		l0.7-0.5h0.3v-0.3h0.5c-0.2-0.1-0.1-0.2,0.2-0.2l0.4-0.9c0-0.3,0.2-0.5,0.5-0.7l0.9-0.5h0.4l0.7-0.2l0.5-0.3h0.2l0.5-0.2l0.4-0.7
		l0.3-0.9l0.2-0.2v-0.3l0.7-0.4c0.1-0.3,0.1-0.5,0-0.7l0.2-0.3h0.3v-0.2h0.2v-0.4l0.4-0.3c0-0.3,0.2-0.5,0.4-0.6l0.5-0.7l0.3-0.5
		l0.2-0.6v-0.3c0-0.1,0.1-0.2,0.3-0.2l-0.3-0.3l0.3-0.2v-0.3l0.2-0.5l0.3-0.2v-0.3h0.2v-0.2h0.3v-0.3l0.2-0.2v-0.3h0.3v-0.2h0.5
		l0.2-0.3h0.3c0,0.2,0.2,0.2,0.7,0l0.7-0.2l0.2-0.4l0.3-0.3l0.4-0.5h0.2l0.3-0.2l0.2-0.3l0.3,0.3v-0.3h0.2l0.3-0.2l0.9-1.1
		L112.7,20.5"/>
</g>
<g id="PathID_88" transform="matrix(1.41865, 0, 0, 1.41865, 289.6, 66.25)">
</g>
<g id="PathID_89" transform="matrix(1.41865, 0, 0, 1.41865, 52.2, 63.85)">
	<path class="st2" d="M145.7,1.1l-0.3-0.2v1.2c0.2,0.1,0.2,0.3,0,0.5c0.2,0,0.2,0.3,0,0.9l0.4,1.4v0.4v0.4V6c-0.1,0.2-0.1,0.3,0,0.5
		v0.3c0.2,0,0.2,0.1,0,0.3h-0.2l0.2,0.4c-0.1-0.2-0.2-0.2-0.2,0c0.1,0.1,0.1,0.3,0,0.5v0.4c0.1,0,0.1,0.1,0,0.3
		c-0.2,0.1-0.2,0.3,0,0.4v0.3l0.2,0.2h0.5c0.3,0.9,0.4,1.8,0.2,2.6l-0.2,0.4l0.2,0.3l-0.2,0.2c0.1,0.2,0.1,0.3,0,0.5v0.7
		c0,0.4,0.1,0.7,0.2,0.9c0,0.5-0.1,0.8-0.2,0.9v0.9l-0.3,0.2l0.3,0.3l-0.5,1.1l0.3,1.1c0,0.6-0.1,1.1-0.4,1.4v0.9h-0.3l0.3,0.5v0.9
		v0.5l0.2,0.4c-0.1,0-0.2,0.2-0.2,0.7h-0.3c0.2,0,0.2,0.1,0,0.3v0.7h0.3l0.2,0.2c0.3,0.6,0.4,1.1,0.3,1.4l-0.3,0.5v0.3v0.7v0.5
		c-0.1,0.3-0.1,0.5,0.3,0.7h-0.3v0.2h0.3v0.7l-0.3,0.7c-0.1,0.2-0.1,0.6,0,1.4l0.3,0.2l0.3,0.9v0.2l-0.3,1.7l-0.3,1.1l0.3,1.4v0.7
		l0.3,0.7c0.1,0,0.1,0.2,0,0.5l0.2,0.5v0.5c0.3,0.5,0.3,0.8,0,0.9c0.3,0,0.4,0.2,0.3,0.7l0.2,0.5v0.3l0.3,0.5v0.5
		c0,0.2,0.1,0.2,0.3,0v0.3h-0.3c-0.2,0.2-0.2,0.3,0,0.5l0.3-0.2v0.2l-0.5,0.4l0.3,0.3l-0.3,0.3l0.5,0.5v0.2L147,48
		c-0.3,0.3-0.3,0.6,0,0.9l-0.2,0.9l-0.3,0.7V51c0.2,0.3,0.2,0.5,0,0.6c-0.1,0.2-0.1,0.3,0,0.5v0.5v0.2v0.5c-0.1,0.1-0.1,0.3,0,0.5
		l-0.2,0.5v0.7l0.2,0.7V56c0.2,0.3,0.2,0.6,0,0.9l0.3,0.3l-0.3,0.4c0.2,0,0.3,0.2,0.4,0.7l0.3,0.7h0.3v1.4v0.4l-0.3,0.5
		c0.2,0,0.3,0.3,0.3,1c-0.2,0.4-0.2,0.8,0,1.2v0.7l0.2,0.5c-0.3,0-0.4,0.2-0.2,0.4l-0.5,0.2v0.5c0,0.5,0.1,0.8,0.3,0.9l-0.3,0.3v0.5
		l0.3,0.3l0.3,0.4c-0.3,0.8-0.4,1.3-0.3,1.6l-0.3,0.3v0.7V71v0.9v0.4l-0.2,0.7l0.7,0.9v0.4v0.3c-0.3,0.9-0.4,1.4-0.3,1.6V77
		c0.2,0.1,0.2,0.2,0,0.2l0.3,0.5c0.1,0,0.1,0.2,0,0.5c0,0.1,0.1,0.1,0.2,0v0.2h-0.2l0.2,0.5l-0.2,0.5v0.4l0.2,0.4l0.3,0.3l-0.4,1.2
		c-0.3,0.3-0.4,0.6-0.3,0.9l-0.3,0.9l-0.2,0.7l0.2,0.4l-0.2,0.7c-0.2,0.1-0.2,0.3,0,0.4c0.1,0.2,0.1,0.3,0,0.4l0.2,0.3v0.5l-0.2,0.4
		c-0.2,0-0.2,0.1,0,0.3l-0.3,0.3v0.7c0,0.3,0.1,0.6,0.3,0.7v0.3l0.2,0.2c-0.1,0.2-0.1,0.3,0,0.5v0.4v0.2c0.2,0.2,0.2,0.3,0,0.5
		c0.2,0,0.3,0.2,0.3,0.7l0.4,0.7v1.4h0.3l-0.3,0.4V95l0.3,1l-0.3,1.2c0.2,0.3,0.2,0.5,0,0.7l0.3,0.4c-0.2,0-0.3,0.2-0.3,0.5
		l-0.2,0.3v0.3c-0.2,0-0.3,0.1-0.3,0.2c0,0.5,0.1,0.8,0.3,1c-0.2,0.3-0.2,0.5,0,0.6l0.2,0.3c-0.1,0.2-0.1,0.3,0,0.5
		c-0.1,0.8-0.1,1.3,0,1.7c-0.1,0.3-0.3,0.4-0.4,0.2l0.3,0.4h-0.3l0.3,0.3l-0.3,0.5l0.3,0.9c-0.2,0.1-0.2,0.3,0,0.5
		c-0.2,0.2-0.3,0.4-0.3,0.7l0.7,0.9c-0.2,0.2-0.2,0.3,0,0.4h-0.3v0.3l-0.2,1.6v0.5v0.5v1.2v0.4v0.7l-0.3-0.3v0.3
		c0.2,0.1,0.2,0.3,0,0.5v0.7c-0.2,0-0.3,0.1-0.3,0.3l0.3,0.7v0.3l-0.3,0.7v1.2l0.3,0.3l-0.3,0.2l0.3,0.7c0.3,0.2,0.4,0.5,0.3,1.2
		v1.2l0.2,1.4v0.2v0.9l0.3,1.2c-0.2,0.2-0.3,0.4-0.3,0.7v0.9l0.3,0.3v0.9c0.1,0.8,0.1,1.6-0.3,2.5h-0.2v0.3h-0.3v0.2l-0.3,0.3
		c-0.1,0.1-0.1,0.2,0,0.2l0.3,0.5c-0.2,0-0.2,0.1,0,0.4l-0.3,0.2l0.3,0.3v0.4l0.3,0.3h-0.3v0.9v0.5v0.4l-0.3,1.4v0.4v0.4v0.4
		c-0.1,0.2-0.1,0.3,0,0.3v0.2l-0.2-0.2l0.2,0.7v0.9l0.3,0.7H142v-0.4H141v0.2h-131v0.3H3.4v-0.4c-0.2-0.5-0.2-0.8,0-0.9l0.2-0.4
		v-0.7h0.3l-0.3-0.2v-0.5v-0.9v-0.3l-0.2,0.3c0.1-0.2,0-0.3-0.3-0.4l-0.5-1l-0.3-0.9l-0.2-0.7c0.1,0,0.2-0.1,0.2-0.4l0.3-0.7
		c0.3,0,0.5-0.2,0.5-0.7c0-0.3,0.1-0.5,0.3-0.7l0.2-0.7l0.3-0.7v-0.7l0.3-0.5l-0.3-0.2v-0.4c0.2-0.5,0.3-0.7,0.5-0.7
		c-0.1-0.6-0.1-1.4,0-2.3c-0.1-0.3-0.1-0.6,0.3-0.7l-0.3-0.4v-0.3l-0.2-1.4v-0.7l0.2-0.9l-0.2-1.4l0.2-0.2v-0.5h0.3v-0.3
		c0.1,0,0.2-0.2,0.2-0.7v-0.5L5,116c-0.2,0-0.3-0.2-0.3-0.4l0.5-0.7l0.2-0.2v-0.3l-0.2-0.7v-0.5c-0.2,0-0.3-0.2-0.3-0.4v-0.5H4.7
		v-0.4H4.5v-0.7l-0.4-0.4l0.2-0.5l-0.5-0.9l-0.3-0.4l-0.5-0.5v-0.4v-0.5H2.9V107H2.7l0.3-0.4H2.7v-0.4c0.2-0.2,0.2-0.2,0-0.3
		l-0.3-0.2c0.3,0,0.4-0.2,0.3-0.5h0.3l-0.3-0.2c-0.2-0.2-0.3-0.3-0.5-0.3l0.2-0.2c0-0.2,0.1-0.3,0.3-0.3c0.2,0,0.2-0.1,0-0.3v-0.2
		l-0.3-0.3v-0.4H2.2l0.2-0.3c0.3-0.1,0.5-0.4,0.5-0.7v-0.4c-0.3-0.3-0.5-0.5-0.5-0.7h0.3v-0.4l-0.3-0.4l0.3-0.5l0.3-0.7l-0.3-0.5
		L2.9,98l-0.3-1.6l0.3-0.2l0.2,0.2c-0.1-0.1-0.1-0.2,0-0.2l0.3-0.3v-0.3c0-0.1,0.1-0.1,0.2,0h0.5c-0.3-0.8-0.4-1.4-0.3-2.1v-0.4
		v-0.5l0.3-0.5v-0.7l-0.3-0.9c0-0.5,0.1-0.8,0.3-0.9v-0.9v-0.4l0.2-1.2V86c-0.1-0.6-0.1-1.1,0.3-1.4l0.2-0.7v-0.7v-0.4v-0.4
		l-0.2-0.5v-0.5l0.2-0.7L5,80.5v-0.3L4.7,80L5,79.8H4.7l-0.2-0.3c-0.3-0.6-0.4-1-0.3-1.3H4.1l0.2-0.5c0-0.2,0.1-0.3,0.3-0.3
		l-0.3-1.1l0.3-0.3l-0.3-0.5h0.3l-0.3-0.3H4.1l0.2-0.7L4.5,74l-0.3-1.4l-0.5-1.2l0.3-0.3c0-0.9,0.1-1.4,0.2-1.6
		c0.2-0.6,0.2-1.1,0-1.4l0.3-0.4v-0.7l-0.4-0.7c-0.2-0.2-0.2-0.4,0-0.7c-0.2,0-0.3-0.2-0.3-0.5C4,65.1,4,65,3.8,64.8v-0.4
		c-0.3-0.5-0.4-0.8-0.3-0.9c-0.1,0-0.1-0.2,0-0.7l-0.2-0.5c-0.2-0.2-0.2-0.3,0-0.3l-0.3-0.5c-0.1,0-0.1-0.2,0-0.5
		c0-0.1-0.1-0.1-0.2,0v-0.2h0.2l-0.2-0.4l0.2-0.5v-0.5L2.9,59l-0.3-0.3c0-0.3,0.2-0.7,0.5-1.2c0.3-0.3,0.4-0.6,0.3-0.9l0.2-1
		l0.3-0.7l-0.3-0.5c0-0.3,0.1-0.5,0.3-0.7c0.2-0.1,0.2-0.3,0-0.5c-0.2-0.1-0.2-0.3,0-0.5l-0.3-0.3v-0.5l0.3-0.5c0.2,0,0.2-0.1,0-0.3
		c0-0.1,0.1-0.2,0.3-0.2v-0.7L3.8,50v-0.3l-0.3-0.2c0.2-0.2,0.2-0.3,0-0.5v-0.5v-0.2c-0.1-0.2-0.1-0.3,0-0.5c-0.1,0-0.2-0.2-0.2-0.7
		l-0.5-0.7v-1.4H2.7l0.3-0.5v-0.5l-0.3-1l0.3-1.1c-0.2-0.3-0.2-0.5,0-0.7L2.7,41l0.3-0.5l0.2-0.3v-0.2l0.3-0.3L3.1,39
		c0.2-0.3,0.2-0.6,0-0.7L2.9,38c0.1-0.1,0.1-0.3,0-0.5C3,36.8,3,36.3,2.9,36c0.1-0.3,0.3-0.4,0.5-0.3l-0.3-0.5h0.3L3.1,35l0.3-0.5
		l-0.3-0.9c0.2-0.2,0.2-0.3,0-0.5l0.3-0.7l-0.7-0.9c0.2-0.2,0.2-0.3,0-0.4h0.3v-0.3l0.2-1.6v-0.5v-0.5v-1.1v-0.4V26l0.3,0.3V26
		c-0.2-0.1-0.2-0.3,0-0.5v-0.7l0.2-0.5L3.8,24l0.3-0.5v-0.7h0.2v-0.3v-0.9L4.7,21l-0.2-0.5L5,19.8v-1.1h0.3L5,18.2
		C5.1,18.1,5.1,18,5,18l0.3-0.5v-0.3L5,17l-0.3-0.2L5,16.6v-0.2v-0.5v-0.7l0.3-0.5H5l0.3-0.2L5,14.1h0.3v-0.3H5v-0.3
		c-0.2,0.2-0.3,0.1-0.3-0.2c0.2-0.3,0.2-0.5,0-0.5L5,12.7v-0.4l0.3-0.5H5l0.3-0.2v-0.9h0.2l-0.2-0.4h0.2L5,9.7l0.3-0.3h0.2
		c0-0.3-0.1-0.4-0.2-0.2L5,9l0.3-0.3c-0.3,0-0.6-0.2-0.7-0.6V7.8l0.2-0.5V6.9L5,7.1V6.7h0.3V6.2H5C5,5.9,5,5.7,5.2,5.5
		C5,5.4,5,5.1,5,4.8V3.9V3.2V2.5L4.7,2.1V0.9V0.7L4.5,0.4h0.2V0.2L5,0.4V0.2C4.8,0.2,4.8,0.2,5,0v-0.2c0.2-0.2,0.3-0.3,0.5-0.3h0.5
		h0.4h0.4h0.5l1.9,0.3v-0.3h136.8L145.7,1.1 M89.8,15.9l-0.4,0.3h-0.5c-0.2,0-0.3,0.1-0.4,0.3c-0.2,0.1-0.3,0.1-0.4,0l-0.3,0.2h-0.3
		c-1.1,0.6-3.8,1.9-8.1,3.7l-8.1-4.1c-0.1-0.2-0.5-0.3-1.2-0.5c-0.6,0.1-1,0-1.2-0.3l-0.4-0.2h-0.2l-0.3,0.2c-0.2,0-0.3,0.1-0.4,0.3
		c0.1-0.2,0.1-0.3,0-0.3L67,17l-0.5,0.5l-0.3,0.7c-0.2,0.1-0.3,0.3-0.3,0.4l-0.7,0.2c0.1,0.2,0.1,0.3,0,0.5l-0.3,0.4
		c0.2,0.6,0.1,1.1-0.3,1.4l-0.7,0.4H64c-0.2,0.1-0.2,0.3,0,0.5v0.3v0.4L63.8,23c-0.1-0.1-0.2-0.1-0.2,0c-0.2,0-0.3,0.1-0.3,0.3v0.3
		l0.3,0.5h-0.3l-0.3,0.2h-0.2l0.2,0.3l-0.2,0.3v0.5l-0.3,0.4v1L62.4,27v0.4l0.2,0.3l-0.2,0.6h0.2c-0.1,0.2-0.1,0.5,0,1l-0.5,0.5
		l0.3,0.7l-0.3,0.3v0.5l-0.3,0.4h0.3v0.3L62,31.6c0.1,0.1,0.1,0.3,0,0.4v1.2l-0.5,0.7l-0.2,0.7h0.2v0.3h-0.2
		c0.1,0.1,0.1,0.3-0.3,0.7c-0.2,0-0.3,0.2-0.3,0.5l-0.2,0.5v0.3v1.1L60.3,39l-0.3,0.5l-0.2,0v0.4h-0.3l-0.7,1l-0.5,0.9L58,42.6
		c0.2,0.2,0.2,0.2,0,0.3v0.3l-0.3,0.5l-0.2,0.7l-0.4,0.9v0.3h-0.3c0.2,0.1,0.1,0.4-0.3,0.7l-0.5,0.5l-0.3,0.7l-0.2,0.5l-0.3,0.5v0.4
		l-0.2-0.2v0.4L55,49.1l-0.5,0.7l-0.3,1v0.5l-0.7,1.6l-0.5,0.7v0.5l-0.3,0.5l-0.2,0.4c-0.2,0.2-0.2,0.2,0,0.3
		c-0.2,0.1-0.3,0.4-0.3,0.7l-0.2,0.5v0.2L52,56.7v0.2l-0.7,0.5l-0.2,0.4l-0.3,0.3l-0.5,0.5l-0.3,0.2V59c0,0.2-0.1,0.2-0.2,0
		l-0.5,0.5v1.1L49,61.3l-0.9,1c-0.2,0.1-0.3,0.1-0.5,0c0,0.1-0.2,0.2-0.5,0.2L47,62.9h-0.5l-0.2,0.5L46,64.1L45.8,65v0.4l-0.5,1
		c-0.1,0.3-0.1,0.4,0,0.4l-0.2,0.5h-0.3V68l-0.3,0.4l-0.5,0.7L44,69.9c-0.2,0.1-0.2,0.4,0,0.7v0.6c-0.2,0-0.2,0.1,0,0.3l-0.3,0.3
		l0.3,0.2l-0.3,0.3v0.9c0,0.2-0.1,0.2-0.2,0l0.2,0.5h-0.3v0.2L43.3,74v0.2L43,74.5v0.5h-0.7v0.3v0.2h-0.2l0.2-0.2l-0.7,0.4L41,76.1
		c-0.3,0.2-0.4,0.3-0.3,0.5l-0.3,0.2l-0.2,0.4l-0.5,0.5l-0.3,0.2h-0.3l-0.4,0.4l-0.5,1.4c-0.2,0-0.3,0.2-0.5,0.7
		c-0.2,0.3-0.4,0.5-0.7,0.5L37,82.5l-0.2,0.3v0.4c-0.2,0-0.3,0.1-0.3,0.3l-0.3,0.5v-0.3c-0.6,0.9-0.9,1.7-0.9,2.3
		c-0.2-0.2-0.5-0.1-1,0.2l-0.2,0.7v0.4h-0.5c0.1,0,0.1,0.1,0,0.3v0.5l-0.7,0.7l-0.7,0.4c-0.2,0-0.3,0.2-0.5,0.7l-0.7,0.4
		c-0.5,0.6-0.8,0.9-0.9,0.7l-0.2,0.7v1.2v0.9c-0.2,0-0.3,0.1-0.3,0.3l0.3,0.3v0.4l-0.3,0.9h-0.2v0.5h-0.3l-0.3,0.4
		c-0.3,0.1-0.5,0.3-0.5,0.5L28.3,98l-0.7,1l-0.7,0.9l-0.2,0.5l-0.7,0.9l-0.5,0.3l-0.3,0.2l-0.7,1.4c-0.1,0.5-0.4,0.7-0.7,0.7
		l-0.2,0.4c-0.3,0.2-0.4,0.3-0.3,0.5c-0.2,0-0.3,0.1-0.3,0.4l0.3,0.5l-0.5,0.5c0.1,0.2,0.1,0.3,0,0.4c0.1,0.6,0.1,1.3,0,1.8v0.5
		l0.2,1.1l-0.2,0.7l-0.5,0.4h0.2l-0.2,0.3v0.5l-0.5,0.9l-0.4,0.4v0.5l-0.2,0.3v0.2l-0.3,0.7l-0.3,0.7v0.7c0-0.2,0.1-0.3,0.3-0.3
		c-0.2,0.2-0.2,0.2,0,0.3l14.6,7.6h0.5v-0.7l0.4-0.9v0.2l0.3-0.9v-0.3l0.2-0.2l0.5-0.5v-0.5l1.2-1.2l0.2-0.4v-0.4l0.3-0.5v-0.3
		l0.2-0.3h0.3v-0.2l-0.3-0.3l0.3-0.3v-0.2l0.3-0.3l0.2-0.4v-0.3c0-0.1,0.1-0.3,0.3-0.4l0.2-0.2h0.7c0.6-0.6,1.1-1.4,1.4-2.3
		c0.2-0.1,0.2-0.2,0-0.2l0.3-0.3v-0.5c0.1-0.2,0.1-0.3,0-0.3l0.5-0.7l0.7-0.9l0.2-0.9l0.3-0.9l0.2-0.2v-0.3l0.5-1.1
		c0-0.2,0.2-0.6,0.7-1.2c0.3-0.5,0.3-0.9,0-1.4l0.5-0.7v-0.5l0.2-0.3c0-0.1,0.2-0.3,0.5-0.7l0.2-0.5v-0.2l0.3-0.3l0.2-0.7v-0.7
		c0.2,0.1,0.3,0.1,0.5,0v0.2l0.4-0.4c0,0.2,0.2,0.2,0.5,0h0.3l0.2-0.3l0.5-0.2l0.9-0.5v0.3c0-0.2,0.1-0.2,0.3,0l0.6-0.4V98l0.3-0.2
		h0.5v-0.3l0.3,0.3l0.2-0.3h0.3l0.3-0.2h0.5h0.4h0.5c0.3,0,0.5-0.1,0.5-0.3v0.3c0-0.2,0.2-0.2,0.5,0h0.5l0.5-0.3l0.9-0.3
		c0.3-0.3,0.6-0.4,0.9-0.2c0.2-0.2,0.3-0.2,0.5,0h0.3c0.2,0,0.3,0.1,0.3,0.2h0.9c0.5,0,0.7,0.1,0.7,0.3h0.9c0-0.2,0.1-0.2,0.3-0.3
		v0.3l0.5-0.3v0.3l0.7-0.3h0.9c0.3,0.2,0.6,0.2,0.7,0c0.3,0,0.5,0.1,0.5,0.3h1.2H67h0.4h0.7h0.9l0.3-0.3v0.3l1.4-0.3h2.1h0.4h0.9
		v-0.2c0.3,0.1,0.5,0.3,0.7,0.5h0.7l0.5,0.3h0.2c0.2,0,0.3,0.1,0.3,0.2h0.3l0.4,0.3l0.5-0.4l0.9,0.2l0.7,0.3l0.3,0.2
		c0.2,0,0.2,0.1,0,0.3c0.3,0,0.6,0.2,0.9,0.5h0.3l0.3,0.3l0.2-0.3h0.5h0.7l0.3-0.2h0.2l0.7,0.2c0.3,0,0.5-0.2,0.5-0.5l0.2,0.3h0.3
		l0.5-0.3l0.4,0.3l0.4-0.3l0.7,0.3l0.5-0.3l0.4-0.3h0.2l0.3-0.2h0.4l0.3-0.3h1.2h0.4h0.3l0.5,0.3l0.7,0.4l0.4,0.5h0.5h0.9
		c0.1,0.2,0.1,0.3,0,0.3h0.2l0.3,0.3h0.4l1.2,0.2h0.7l0.5,0.3c0.6,0,1.1-0.1,1.4-0.4c0.2,0.1,0.3,0.1,0.5,0l0.7,0.2
		c0.8,0.2,1.4,0.2,1.8,0l0.5,0.5h0.7h0.5v0.3c0-0.2,0.1-0.2,0.3-0.3h0.2l0.7,0.3l0.5,0.3l0.5,0.2l-0.3,0.4l0.4,0.7l0.7,0.7
		c0.5,0.2,0.8,0.4,0.9,0.7c0.3,0,0.4,0.1,0.4,0.3v0.2l0.5,0.7l0.3,0.3v0.2h0.2l-0.2,0.3l0.2,0.4c-0.1,0.3-0.1,0.5,0,0.7
		c0,0.3,0.2,0.6,0.5,0.9l0.3,1.2l0.3,1c0.1,0.3,0.1,0.5,0,0.7l0.4,0.9l-0.3,0.4v0.7l0.7,1.1c0.2,0.5,0.2,0.8,0,1.2
		c0.2,0,0.2,0.2,0.3,0.5v0.5l0.5,0.4l0.4,0.3c-0.1,0-0.1,0.1,0,0.2l0.3,0.5c0.6,0.2,1.1,0.6,1.4,1.2v0.2l0.4,0.3l0.9,0.4l0.3,0.7
		l0.2,0.5h0.3v0.4l0.3,0.3l0.4,0.7l-0.3,0.4l0.3,0.4l0.4,0.5v0.3c0,0.2,0.2,0.4,0.5,0.7l0.3,0.5l0.4,0.3l0.3,0.2l15.2-6.2l-0.7-1.7
		v0.3l-0.5-0.7l0.3,0.3l-0.3-0.4c0-0.3-0.1-0.5-0.2-0.5v-0.4l-0.5-0.5V113l-0.2-0.4l-0.3-0.4l-0.3-0.3c-0.1-0.1-0.1-0.3,0-0.5h-0.2
		l0.2-0.3l-0.2-0.2c0-0.2-0.1-0.2-0.3,0c0.2-0.2,0.2-0.3,0-0.5c0,0.1-0.1,0.1-0.2,0c0.1,0,0.1-0.2,0-0.5l-0.3-0.2l-0.3-0.3
		c-0.1-0.2-0.1-0.3,0-0.4c-0.1-0.2-0.1-0.3,0-0.5v-0.3h0.3v-0.3c0-0.9-0.2-1.7-0.7-2.5l-0.2-0.3v-0.3l-0.3-0.2l-0.3-0.5l-0.2-0.7
		l-0.3-0.9l-0.7-0.9l-0.2-0.7l-0.3-0.3v-0.2l-0.3-0.3l0.5-0.2h0.7h0.5l0.2-0.3l0.3-0.3l0.7-13.4H127v0.2h-0.9l-0.3-0.2h-0.4
		l-0.3,0.2l-1.3-0.5c-0.3-0.1-0.6-0.1-0.7,0h-0.7V86h-0.3c-0.1,0.1-0.1,0.2,0,0.2h-1.3c-0.2,0.2-0.3,0.2-0.5,0l-0.2-0.2l-0.3-0.3
		l-0.4-0.3l-0.3-1.2l-0.9-1.3c-0.5-0.6-0.7-1.1-0.7-1.4l-0.3-0.4l-0.2-0.7c-0.2-0.2-0.2-0.4,0-0.7l-0.3-0.7c0.2-0.1,0.2-0.3,0-0.5
		l-0.2-0.4v-0.5l-0.3-0.3l0.3-0.4l-0.3-0.4v-0.3l-0.3-0.5c0.2-0.5,0.1-0.7-0.2-0.7l0.2-0.5l-0.2-0.5c-0.2-0.1-0.2-0.2,0-0.2
		l-0.3-0.4h0.3l-0.3-0.3l-0.4-0.3l0.2-0.2h-0.2v-0.9h0.2l-0.9-0.9c-0.5-0.3-0.7-0.6-0.7-0.9l-0.4-0.7l-0.5-0.7
		c-0.2,0-0.3-0.2-0.3-0.7l-0.4-0.4v-0.3l-0.3-0.7c0.2,0,0.1-0.1-0.2-0.4c-0.2-0.2-0.2-0.4-0.3-0.7h-0.3v-0.3c-0.3-0.6-0.5-1-0.5-1.3
		v-0.4l-0.2-0.5l-0.3-0.5V62l-0.3-0.3l0.3-0.7l-0.3-0.9h0.3l-0.3-0.5l-0.2-1l-0.3-0.5l-0.2-0.2l-0.3-1.2l-0.7-0.9l-0.3-0.7
		c0.2-0.1,0.2-0.3,0-0.5l-0.2-0.4h-0.4l-0.3-0.5c-0.3-0.4-0.4-0.7-0.3-0.9l-0.2-0.5l-0.3-0.3l0.3-0.2l-0.3-0.7
		c-0.5-0.6-0.7-1.1-0.7-1.4l-0.4-0.3v-0.5l-0.5-0.5v-0.4l-0.3-0.7l-0.2-0.3l-0.5-0.7c0.2,0,0.3-0.4,0.5-1.2l-0.3-0.4h-0.3V45
		c-0.6-0.6-0.9-1.1-0.9-1.4v-0.5H103v-0.5l-0.2-0.4l-0.5-0.5c0.1-0.2,0.1-0.3,0-0.5l-0.3-0.5l-0.3-0.3l-0.2-0.5l-0.3-0.4l-0.9-0.7
		l-0.5-0.7l-0.2-0.5h-0.3v-0.3l-0.5-0.7l-0.7-0.7v-0.5l-0.7-0.5l-0.4-1L97,34.1c0.2,0,0.2-0.1,0-0.3c-0.1-0.1-0.1-0.3,0-0.4
		l-0.4-0.3V33c0-0.2,0.1-0.3,0.3-0.3v-0.5c0,0.2-0.1,0.2-0.3,0V32l-0.2-0.2v-0.3l-0.5-0.7l-0.2-0.2v-0.3l0.2-0.3h-0.4V30h-0.2v-0.5
		l0.2,0.2v-0.2l-0.2-0.3l0.2-0.3l-0.2-0.5l-0.7-0.7h0.2l-0.2-0.2v-0.3l-0.3-0.3l-0.4-0.6V26h-0.3v-0.5v-0.2l-0.2,0.2l-0.3-0.2
		c0-0.2,0.1-0.3,0.3-0.3c0.1,0,0.1-0.1,0-0.3v-0.2c0.1,0,0.1-0.2,0-0.7v-0.3l-0.5-0.5V23l-0.2-0.2c-0.2-0.2-0.3-0.2-0.3,0l-0.2-0.3
		v-0.4l-0.3-0.5l-0.3-0.9L91.5,20L91,19.4v-0.7L90.8,18l-0.3-1l-0.2-0.2v-0.4l-0.3,0.2h-0.3v-0.2h0.3l-0.3-0.3V15.9 M83.9,43.1
		l0.7,0.7c0.5,0.3,0.7,0.6,0.7,0.9c0.2,0,0.3,0.2,0.3,0.7l0.2,0.2l-0.2,0.3c0,0.3,0.2,0.7,0.4,1.2l0.3,1c0,0.3,0.2,0.6,0.5,0.9
		l0.3,0.3v0.2l0.2,0.3v0.2l0.5,0.5l0.3,0.9l0.3,0.3l0.2,0.7c0.2,0.4,0.2,0.7,0,0.7l0.3,0.7l0.4,0.5l0.3,0.5v0.2h0.2l-0.2,0.3
		l0.2,0.3v0.5l0.3,0.2V56l0.9,1.2l0.7,1.6l0.3,0.7l0.2,0.5l0.3,0.5l0.3,0.2l0.2,0.5l0.3,0.5l0.2,0.5l0.3,0.3v0.2l0.3,0.3v0.7v0.4
		l0.2,0.5v0.9c0.2,0.2,0.2,0.3,0,0.3v0.7l0.7,0.7c0.3,0.3,0.4,0.6,0.3,0.9l0.2,0.9v0.5c-0.1,0.2-0.2,0.2-0.2,0l-0.3,0.7v0.5V71
		l0.4,0.7l0.7,0.9l0.3,0.5v-0.2l0.2,0.8c0.2,0.3,0.3,0.4,0.5,0.3l0.2,0.4l-0.2,0.3h0.2v0.2l0.3,0.3l0.2,0.4l0.5,0.7
		c0,0.5,0.1,0.8,0.2,0.9c0,0.2,0.2,0.3,0.5,0.5l0.5,0.5h0.2v0.2l0.3,0.3v0.3l0.5,0.2v0.3h0.3v0.2h0.2V80h0.3v0.2l0.3,0.3v0.3
		l0.2,0.5l-0.2,0.4h0.2v0.3h-0.2l-0.3,0.7l-0.3,0.9c0,0.1,0.2,0.3,0.5,0.5v0.3l0.2,0.4c0.2,0.5,0.1,0.7-0.2,0.7h-0.3l-1.2-0.5h-0.7
		l-0.7,0.2c-0.6,0.2-1,0.2-1.1,0l-0.5,0.3c-0.3-0.2-0.5-0.2-0.7-0.3c-0.1,0-0.3-0.1-0.5-0.2c-0.2-0.2-0.4-0.3-0.7-0.3H94h-0.5h-0.2
		c-0.2-0.2-0.3-0.2-0.3,0c-0.3-0.3-0.5-0.4-0.7-0.3l-0.2-0.2h-0.5l-0.2-0.3c-0.2,0-0.3,0.1-0.3,0.3l-0.4-0.5c-0.3,0.2-0.5,0.2-0.5,0
		c-0.2,0.2-0.3,0.2-0.5,0l-0.4,0.3v-0.3l-0.2,0.3l-0.5-0.5v0.2l-0.2-0.2c-0.3,0-0.6,0.2-0.9,0.5c-0.3,0.2-0.6,0.2-0.9,0h-0.5
		l-0.7,0.3H85c-0.3-0.2-0.6-0.2-0.7,0c0,0.1-0.1,0.1-0.3,0h-0.4l-0.3-0.3l-0.2,0.3c-0.2,0.1-0.3,0.1-0.5,0h-0.2
		c-0.2,0-0.3,0.1-0.3,0.2c-0.6,0-1-0.1-1.2-0.4c0,0.2-0.1,0.2-0.2,0h-0.5h-0.5l-0.2-0.3c-0.2,0-0.3,0.1-0.3,0.3
		c-0.2-0.2-0.4-0.3-0.7-0.5l-0.7-0.3L76.9,83l-0.7,0.2L75.6,83c-0.5,0.1-0.8,0.1-0.9,0h-0.7l-0.2-0.3L73.2,83L73,83.2h-0.3v0.3
		l-0.9-0.3c-0.3,0.2-0.6,0.2-0.7,0V83h-0.4h-1.4l-0.3,0.2L68.9,83l-0.3,0.2V83l-0.5,0.2L67.2,83c0,0.1-0.1,0.1-0.2,0l-0.7,0.2
		l-0.7-0.7c-0.1,0.2-0.3,0.2-0.5,0v0.3c-0.8,0.2-1.3,0.2-1.6,0c0,0.2-0.1,0.2-0.3,0V83l-0.4-0.3c-0.5,0-0.8,0.1-1,0.3l-0.2-0.3H61
		V83c-0.2-0.2-0.3-0.2-0.5,0h-0.5l-0.9,0.4c0-0.2-0.2-0.2-0.5,0h-0.5L58,83.7h-0.9l0.2-0.5c0.3-0.1,0.5-0.4,0.5-0.7h0.5l0.2-0.4
		l0.3-0.2h-0.3l0.3-0.5v0.3l0.2-0.3v-0.7v-0.3l0.7-0.3V80h0.3c0.1-0.3,0.1-0.7,0-1.2c-0.2-0.6-0.1-1,0.2-1.2l0.3-0.9
		c0-0.3,0.1-0.5,0.3-0.7l0.2-0.7l0.3-0.4l0.3-0.5l0.2-0.4l0.3-0.4l0.2-0.7v-0.3c0.2,0,0.2-0.1,0-0.3c0.3-0.6,0.7-1,1-1.2V71l0.2-0.3
		l0.3-0.4l0.3-0.3l0.4-0.2v-0.4l1.2-1.2h0.3l0.2-0.2c0-0.5,0.1-0.8,0.4-0.9v-0.5l0.3-0.4l0.7-0.7c0-0.6,0.2-1.1,0.4-1.4l0.3-0.5
		l0.4-0.4h-0.3l0.3-0.5c-0.2,0-0.3-0.2-0.3-0.5l0.3-0.3h-0.3l0.7-1v-0.5c0-0.1,0.1-0.2,0.3-0.2h0.2l0.5-0.7c0.1-0.8,0.4-1.2,0.7-1.4
		c0-0.3-0.1-0.5-0.2-0.5l0.2-0.3v-0.2h0.3v-0.7l0.4-0.3l0.3-0.5c-0.2-0.2-0.2-0.3,0-0.5l0.2-0.7l0.9-0.7c0.2-0.2,0.3-0.2,0.5-0.3
		l-0.2-0.2l0.2-0.3c0-0.8,0.2-1.3,0.4-1.6v-0.3l0.3-0.2l-0.3-0.3h0.5l0.2-0.7l0.3-0.7l0.2-0.2v-0.5l0.3-0.3h-0.3l0.3-0.7
		c0.2-0.3,0.3-0.5,0.4-0.5l-0.2-0.5v-0.7l0.2-1.1v-0.3l0.3-0.2v-0.5l0.3-0.5v-0.7l0.2-0.5c0.2-0.2,0.2-0.3,0-0.4V42l0.4-1v-0.2
		l0.3-0.3c0-0.2,0.1-0.3,0.3-0.3c-0.2-0.1-0.2-0.2,0-0.2v-0.4h0.4l0.5-0.5c-0.2,0.2-0.3,0.2-0.3,0l0.3-0.2c-0.2,0-0.2-0.1,0-0.3
		v-0.5l0.4-0.5v-0.5c0-0.1,0.1-0.1,0.3,0l-0.3-0.5l0.3-0.2l0.2-0.3h0.3v-0.3H79c0,0.2,0.2,0.4,0.7,0.7v0.3c0.1,0,0.1,0.1,0,0.2
		c0.1,0,0.3,0.2,0.7,0.5V38l0.5,0.5c-0.2,0-0.2,0.1,0,0.3h0.2l0.3,0.5l0.5,0.3v0.3l0.3,0.2v0.3l0.4,0.5l0.2,0.7h0.3v0.2l0.3,0.5
		l0.2,0.6l0.5,0.3V43.1"/>
</g>
<g id="PathID_90" transform="matrix(1.41865, 0, 0, 1.41865, 52.2, 63.85)">
</g>
<g id="PathID_91" transform="matrix(0.798323, 0, 0, 0.798323, 54.9, 336.6)">
	<path d="M32.3-21.9v20.4c-1.2,0.4-2.8,0.9-4.8,1.3c-2,0.4-4.1,0.6-6.4,0.6c-3,0-5.6-0.3-7.9-1.1s-4.3-2-5.9-3.6
		c-1.7-1.7-3-3.8-3.9-6.3c-0.9-2.6-1.3-5.4-1.3-8.5c0-4.4,0.9-8.2,2.7-11.2s4.2-5.3,7.2-6.8c3-1.6,6.4-2.4,10.2-2.4
		c2,0,3.8,0.2,5.4,0.5c1.6,0.3,2.9,0.7,3.9,1.2l-1.6,6.2c-0.9-0.4-1.9-0.7-3.1-1c-1.2-0.3-2.7-0.4-4.4-0.5c-3.6,0-6.5,1.1-8.8,3.4
		c-2.3,2.2-3.4,5.7-3.6,10.4c0.1,4.5,1.1,8,3.3,10.3s4.8,3.4,8.1,3.4c0.9,0,1.7-0.1,2.3-0.2c0.7-0.1,1.2-0.2,1.6-0.4V-16h-5.7v-5.9
		H32.3"/>
</g>
<g id="PathID_92" transform="matrix(0.798323, 0, 0, 0.798323, 54.9, 336.6)">
</g>
<g id="PathID_93" transform="matrix(0.798323, 0, 0, 0.798323, 83, 336.6)">
	<path d="M3.8-38.8c1.3-0.2,2.8-0.4,4.5-0.5c1.8-0.2,3.6-0.3,5.6-0.3c1.3,0,2.8,0,4.4,0.3c1.7,0.2,3.3,0.6,4.9,1.3
		c1.6,0.7,3,1.8,4,3.3c1.1,1.5,1.6,3.6,1.7,6.2c0,2.4-0.7,4.5-2,6.2c-1.3,1.7-2.9,2.9-4.8,3.6v0.2c1.4,0.5,2.5,1.5,3.3,2.8
		c0.8,1.3,1.5,2.9,2,4.9L29-4.2c0.5,2,0.9,3.4,1.4,4.2h-7.8c-0.3-0.6-0.7-1.6-1.1-3.3c-0.4-1.6-0.9-3.6-1.4-6.1
		c-0.5-2.5-1.2-4.2-2.1-5.2c-0.9-1-2.3-1.5-4.1-1.4h-2.5V0H3.8V-38.8 M11.4-21.6h3.1c2.2,0,3.9-0.6,5-1.7c1.2-1.1,1.8-2.6,1.9-4.5
		c0-1.7-0.4-2.9-1.1-3.8c-0.7-0.9-1.5-1.5-2.5-1.8s-2-0.4-2.9-0.4c-0.8,0-1.6,0-2.2,0.1c-0.6,0-1,0.1-1.3,0.2V-21.6"/>
</g>
<g id="PathID_94" transform="matrix(0.798323, 0, 0, 0.798323, 83, 336.6)">
</g>
<g id="PathID_95" transform="matrix(0.798323, 0, 0, 0.798323, 108, 336.6)">
	<path d="M21.6-39.3L32.6,0h-7.9l-2.9-10.4H11.3L8.6,0H0.9l11.2-39.3H21.6 M12.4-16.1h8.4l-2.3-8.9c-0.3-1.3-0.6-2.6-1-4.1l-0.9-4
		h-0.1l-0.9,4l-0.9,3.9L12.4-16.1"/>
</g>
<g id="PathID_96" transform="matrix(0.798323, 0, 0, 0.798323, 108, 336.6)">
</g>
<g id="PathID_97" transform="matrix(0.798323, 0, 0, 0.798323, 135.1, 336.6)">
	<path d="M3.8,0v-38.8c1.2-0.2,2.7-0.4,4.3-0.5c1.7-0.2,3.6-0.3,5.8-0.3c2.5,0,4.7,0.2,6.5,0.8c1.9,0.5,3.4,1.3,4.7,2.3
		c1.2,1,2.1,2.3,2.8,3.8c0.7,1.5,1,3.2,1,5c-0.1,3.5-0.9,6.3-2.5,8.2c-1.6,1.9-3.6,3.2-5.9,3.9c-2.3,0.7-4.4,1-6.5,1h-1.5
		c-0.4,0-0.9-0.1-1.3-0.2V0H3.8 M11.4-20.7l1.2,0.1l1.4,0c2.4,0,4.2-0.6,5.5-1.8c1.3-1.2,2-2.9,2-5.1c0-2.1-0.7-3.7-1.9-4.7
		c-1.2-1.1-2.9-1.6-5-1.7c-0.8,0-1.4,0-2,0.1l-1.3,0.2V-20.7"/>
</g>
<g id="PathID_98" transform="matrix(0.798323, 0, 0, 0.798323, 135.1, 336.6)">
</g>
<g id="PathID_99" transform="matrix(0.798323, 0, 0, 0.798323, 159.55, 336.6)">
	<path d="M32.3-39.3V0h-7.5v-17H11.4V0H3.8v-39.3h7.5v15.7h13.4v-15.7H32.3"/>
</g>
<g id="PathID_100" transform="matrix(0.798323, 0, 0, 0.798323, 159.55, 336.6)">
</g>
<g id="PathID_101" transform="matrix(0.798323, 0, 0, 0.798323, 188.4, 336.6)">
	<path d="M3.8,0v-39.3h7.5V0H3.8"/>
</g>
<g id="PathID_102" transform="matrix(0.798323, 0, 0, 0.798323, 188.4, 336.6)">
</g>
<g id="PathID_103" transform="matrix(0.798323, 0, 0, 0.798323, 200.5, 336.6)">
	<path d="M27.9-32.3c-0.8-0.3-1.7-0.6-2.8-0.8c-1-0.3-2.2-0.4-3.6-0.5c-3.3,0-6.1,1.2-8.3,3.4c-2.2,2.3-3.3,5.8-3.4,10.6
		c0.1,4.4,1.1,7.8,3.2,10.1c2.1,2.3,4.9,3.5,8.5,3.5c1.2,0,2.4-0.1,3.5-0.3s2.1-0.5,2.9-0.8L29-1c-0.7,0.4-1.9,0.7-3.4,1
		c-1.5,0.3-3.3,0.4-5.3,0.4c-3.9,0-7.3-0.8-10-2.5C7.5-3.6,5.4-5.9,4-8.9c-1.4-3-2.1-6.4-2.1-10.3c0-4.6,0.9-8.4,2.7-11.5
		c1.8-3.1,4.1-5.4,7-6.9s6.1-2.3,9.7-2.3c2.1,0,3.9,0.2,5.3,0.5c1.4,0.3,2.3,0.6,2.9,0.9L27.9-32.3"/>
</g>
<g id="PathID_104" transform="matrix(0.798323, 0, 0, 0.798323, 200.5, 336.6)">
</g>
<g id="PathID_105" transform="matrix(0.798323, 0, 0, 0.798323, 224.95, 336.6)">
	<path d="M3.5-8c1.1,0.6,2.3,1.1,3.8,1.6c1.5,0.4,3.1,0.6,4.7,0.6c2.1,0,3.7-0.5,4.7-1.3c1.1-0.9,1.7-2.1,1.7-3.6
		c0-1.4-0.5-2.5-1.5-3.5c-1-1-2.6-1.9-4.8-2.9c-3-1.3-5.4-2.9-7-4.8c-1.7-1.9-2.5-4.1-2.6-6.6c0-3.3,1.2-6,3.5-8.1
		c2.4-2.1,5.7-3.2,10-3.3c1.9,0,3.5,0.2,4.9,0.5c1.4,0.3,2.6,0.7,3.6,1.2L23-31.9c-0.7-0.4-1.6-0.7-2.9-1.1
		c-1.2-0.4-2.5-0.6-4.2-0.6c-2,0.1-3.5,0.5-4.4,1.4c-0.9,0.8-1.4,1.8-1.4,2.9c0,1.4,0.5,2.5,1.6,3.4C12.9-25,14.6-24,17-23
		c3.1,1.4,5.4,3.1,6.9,5c1.5,1.9,2.2,4.1,2.2,6.6c0,3.5-1.2,6.3-3.7,8.5s-6,3.3-10.6,3.3c-2,0-3.9-0.2-5.7-0.6C4.4-0.6,3-1.1,2-1.7
		L3.5-8"/>
</g>
<g id="PathID_106" transform="matrix(0.798323, 0, 0, 0.798323, 224.95, 336.6)">
</g>
<g id="PathID_107" transform="matrix(0.798323, 0, 0, 0.798323, 256, 336.6)">
	<path d="M18.3-20.5l3.5,4.5l3.5,4.1c0.8-1.3,1.4-2.9,1.9-4.6c0.5-1.8,0.8-3.6,1.1-5.4h6.7c-0.4,2.9-1.1,5.6-2.1,8.1
		c-0.9,2.5-2.2,4.6-3.8,6.5L32-3.9L35.4,0h-8.7l-1.3-1.4L24.1-3c-1.3,1.1-2.8,2-4.5,2.7c-1.7,0.6-3.6,0.9-5.6,0.9
		C11.2,0.5,8.9,0,7.1-1C5.3-2,3.9-3.4,3-5.1c-0.9-1.7-1.4-3.5-1.4-5.4c0-2.5,0.6-4.7,1.9-6.5c1.3-1.9,3-3.4,5.2-4.7v-0.2
		C7.8-23,7-24.3,6.5-25.7c-0.5-1.4-0.8-2.8-0.8-4.2c0-1.7,0.4-3.3,1.2-4.8c0.8-1.5,2-2.8,3.6-3.8s3.5-1.5,5.9-1.5
		c2.8,0,5,0.8,6.8,2.4c1.8,1.6,2.7,3.7,2.7,6.4c0,2-0.5,3.8-1.7,5.5c-1.2,1.7-3.1,3.3-5.9,4.9V-20.5 M18.2-5.6c1-0.4,1.8-1,2.5-1.8
		l-4.1-4.8L12-17.8c-0.8,0.6-1.6,1.5-2.3,2.4c-0.6,1-1,2.2-1.1,3.7c0,1.9,0.6,3.4,1.8,4.7c1.2,1.2,2.8,1.9,4.8,1.9
		C16.2-5,17.2-5.2,18.2-5.6 M13.3-33.6c-0.6,0.9-0.9,1.9-0.9,3c0,1.1,0.3,2.2,0.7,3.2c0.4,1,1.1,1.9,1.9,2.9c1.5-1,2.6-1.9,3.3-2.9
		c0.8-1,1.2-2.2,1.2-3.4c0-1-0.3-2-0.8-2.9c-0.5-0.9-1.4-1.3-2.6-1.4C14.8-35,13.9-34.5,13.3-33.6"/>
</g>
<g id="PathID_108" transform="matrix(0.798323, 0, 0, 0.798323, 256, 336.6)">
</g>
<g id="PathID_109" transform="matrix(0.798323, 0, 0, 0.798323, 293.3, 336.6)">
	<path d="M3.2-36.7c1-0.7,2.4-1.3,4.2-1.8s3.7-0.8,5.8-0.8c3.7,0.1,6.6,1,8.5,2.8c1.9,1.8,2.8,4,2.8,6.6c0,2-0.6,3.8-1.8,5.4
		c-1.1,1.5-2.8,2.7-4.9,3.5v0.1c2.2,0.5,4,1.6,5.5,3.3c1.5,1.7,2.3,3.8,2.3,6.5c0,3.3-1.2,6.1-3.7,8.3c-2.4,2.2-5.9,3.3-10.5,3.4
		c-2.1,0-4-0.2-5.7-0.6c-1.7-0.5-3-1-4-1.7l1.7-5.7C4.4-7,5.4-6.6,6.8-6.1c1.4,0.4,2.8,0.7,4.3,0.7c2.3-0.1,4.1-0.7,5.3-1.8
		s1.8-2.6,1.8-4.2c-0.1-2.2-0.9-3.8-2.5-4.8c-1.5-1.1-3.4-1.6-5.5-1.6H7.5v-5.3H10c1.1,0,2.1-0.2,3.1-0.6c1.1-0.4,1.9-1,2.7-1.8
		c0.7-0.8,1.1-1.8,1.2-3.1c0-1.4-0.5-2.5-1.4-3.4s-2.3-1.3-4.1-1.3c-1.4,0-2.6,0.3-3.8,0.8c-1.2,0.4-2.2,0.9-2.9,1.3L3.2-36.7"/>
</g>
<g id="PathID_110" transform="matrix(0.798323, 0, 0, 0.798323, 293.3, 336.6)">
</g>
<g id="PathID_111" transform="matrix(0.798323, 0, 0, 0.798323, 316.65, 336.6)">
	<path d="M3.8-38.8c1.4-0.3,3-0.5,4.7-0.6c1.7-0.1,3.5-0.2,5.4-0.2c3.3,0,6.1,0.3,8.4,1c2.3,0.7,4.3,1.7,5.9,3
		c1.9,1.5,3.3,3.5,4.4,6c1,2.5,1.5,5.5,1.5,9c0,4.2-0.6,7.6-1.8,10.2c-1.2,2.6-2.5,4.5-4.1,5.9c-1.8,1.6-4,2.8-6.7,3.6
		c-2.7,0.8-5.7,1.1-9.2,1.1c-1.8,0-3.5-0.1-4.9-0.1S4.8,0,3.8-0.2V-38.8 M11.4-5.8l1.3,0.2h1.6c3.6,0,6.5-1.1,8.7-3.5
		c2.2-2.4,3.3-6.1,3.3-11.3c0-4.4-1-7.8-3-10c-2-2.2-4.8-3.3-8.3-3.3c-0.8,0-1.5,0-2.1,0.1l-1.5,0.3V-5.8"/>
</g>
<g id="PathID_112" transform="matrix(0.798323, 0, 0, 0.798323, 316.65, 336.6)">
</g>
<g id="PathID_113" transform="matrix(0.798323, 0, 0, 0.798323, 354.2, 336.6)">
	<path d="M21.6-39.3L32.6,0h-7.9l-2.9-10.4H11.3L8.6,0H1l11.2-39.3H21.6 M12.4-16.1h8.4l-2.3-8.9c-0.3-1.3-0.6-2.6-1-4.1l-0.9-4
		h-0.1l-0.9,4l-0.9,3.9L12.4-16.1"/>
</g>
<g id="PathID_114" transform="matrix(0.798323, 0, 0, 0.798323, 354.2, 336.6)">
</g>
<g id="PathID_115" transform="matrix(0.798323, 0, 0, 0.798323, 381.3, 336.6)">
	<path d="M3.8-38.8c1.3-0.2,2.8-0.4,4.5-0.5c1.8-0.2,3.6-0.3,5.6-0.3c1.3,0,2.8,0,4.5,0.3c1.7,0.2,3.3,0.6,4.9,1.3
		c1.6,0.7,3,1.8,4,3.3c1.1,1.5,1.6,3.6,1.7,6.2c0,2.4-0.7,4.5-2,6.2c-1.3,1.7-2.9,2.9-4.7,3.6v0.2c1.4,0.5,2.5,1.5,3.3,2.8
		c0.8,1.3,1.5,2.9,2,4.9L29-4.2c0.5,2,0.9,3.4,1.4,4.2h-7.8c-0.3-0.6-0.7-1.6-1.1-3.3c-0.4-1.6-0.9-3.6-1.4-6.1
		c-0.5-2.5-1.2-4.2-2.1-5.2c-0.9-1-2.3-1.5-4.1-1.4h-2.5V0H3.8V-38.8 M11.3-21.6h3.1c2.2,0,3.9-0.6,5.1-1.7c1.2-1.1,1.8-2.6,1.9-4.5
		c0-1.7-0.4-2.9-1.1-3.8c-0.7-0.9-1.5-1.5-2.5-1.8s-2-0.4-2.9-0.4c-0.8,0-1.6,0-2.2,0.1c-0.6,0-1,0.1-1.3,0.2V-21.6"/>
</g>
<g id="PathID_116" transform="matrix(0.798323, 0, 0, 0.798323, 381.3, 336.6)">
</g>
<g id="PathID_117" transform="matrix(0.798323, 0, 0, 0.798323, 406.3, 336.6)">
	<path d="M27.6-39.3v6.5h-9.7V0h-7.6v-32.8H0.6v-6.5H27.6"/>
</g>
<g id="PathID_118" transform="matrix(0.798323, 0, 0, 0.798323, 406.3, 336.6)">
</g>
<g id="PathID_119" transform="matrix(0.798323, 0, 0, 0.798323, 428.8, 336.6)">
	<path d="M3.8,0v-39.3h7.5V0H3.8"/>
</g>
<g id="PathID_120" transform="matrix(0.798323, 0, 0, 0.798323, 428.8, 336.6)">
</g>
<g id="PathID_121" transform="matrix(0.798323, 0, 0, 0.798323, 440.9, 336.6)">
	<path d="M3.5-8c1.1,0.6,2.3,1.1,3.8,1.6c1.5,0.4,3.1,0.6,4.6,0.6c2.1,0,3.7-0.5,4.8-1.3c1.1-0.9,1.7-2.1,1.7-3.6
		c0-1.4-0.5-2.5-1.5-3.5c-1-1-2.6-1.9-4.8-2.9c-3-1.3-5.3-2.9-7-4.8c-1.7-1.9-2.5-4.1-2.5-6.6c0-3.3,1.2-6,3.5-8.1
		c2.4-2.1,5.7-3.2,10-3.3c1.9,0,3.5,0.2,4.9,0.5c1.4,0.3,2.6,0.7,3.6,1.2L23-31.9c-0.7-0.4-1.6-0.7-2.9-1.1
		c-1.2-0.4-2.5-0.6-4.2-0.6c-2,0.1-3.5,0.5-4.4,1.4c-0.9,0.8-1.4,1.8-1.4,2.9c0,1.4,0.5,2.5,1.6,3.4C12.9-25,14.6-24,17-23
		c3.1,1.4,5.4,3.1,6.9,5c1.5,1.9,2.2,4.1,2.2,6.6c0,3.5-1.2,6.3-3.7,8.5s-6,3.3-10.6,3.3c-2,0-3.9-0.2-5.6-0.6C4.4-0.6,3-1.1,2-1.7
		L3.5-8"/>
</g>
<g id="PathID_122" transform="matrix(0.798323, 0, 0, 0.798323, 440.9, 336.6)">
</g>
<g id="PathID_123" transform="matrix(0.798323, 0, 0, 0.798323, 463.2, 336.6)">
	<path d="M27.6-39.3v6.5h-9.8V0h-7.5v-32.8H0.7v-6.5H27.6"/>
</g>
<g id="PathID_124" transform="matrix(0.798323, 0, 0, 0.798323, 463.2, 336.6)">
</g>
<g id="PathID_125" transform="matrix(1.41865, 0, 0, 1.41865, 271.3, 282.4)">
</g>
<g>
	<g id="PathID_126_2_" transform="matrix(1.41865, 0, 0, 1.41865, 271.3, 282.4)">
		<path class="st3" d="M-61.7-0.4H61.1"/>
	</g>
	<g id="PathID_126_1_" transform="matrix(1.41865, 0, 0, 1.41865, 271.3, 282.4)">
		<path class="st4" d="M50.4-0.4h114.9"/>
	</g>
	<g id="PathID_126" transform="matrix(1.41865, 0, 0, 1.41865, 271.3, 282.4)">
		<path class="st5" d="M-160.1-0.4h104.4"/>
	</g>
</g>
</svg>
